<svg width="26" height="31" viewBox="0 0 26 31" fill="none" xmlns="http://www.w3.org/2000/svg">
<path d="M9.52441 24.2571C8.71143 24.2571 8.01547 23.9676 7.43653 23.3887C6.85759 22.8097 6.56811 22.1138 6.56811 21.3008V3.56299C6.56811 2.75001 6.85759 2.05404 7.43653 1.4751C8.01547 0.89616 8.71143 0.606689 9.52441 0.606689H22.8278C23.6407 0.606689 24.3367 0.89616 24.9156 1.4751C25.4946 2.05404 25.7841 2.75001 25.7841 3.56299V21.3008C25.7841 22.1138 25.4946 22.8097 24.9156 23.3887C24.3367 23.9676 23.6407 24.2571 22.8278 24.2571H9.52441ZM9.52441 21.3008H22.8278V3.56299H9.52441V21.3008ZM3.61182 30.1697C2.79883 30.1697 2.10287 29.8802 1.52393 29.3013C0.944988 28.7223 0.655518 28.0264 0.655518 27.2134V6.51929H3.61182V27.2134H19.8715V30.1697H3.61182Z" fill="#9FCDE2"/>
</svg>
