<svg width="18" height="18" viewBox="0 0 18 18" fill="none" xmlns="http://www.w3.org/2000/svg">
<path d="M7.5 17.25C7.5 17.6647 7.164 18 6.75 18H3.75C1.68225 18 0 16.3177 0 14.25V5.25C0 3.18225 1.68225 1.5 3.75 1.5H3.87825C4.188 0.627 5.022 0 6 0H7.5C8.478 0 9.312 0.627 9.62175 1.5H9.75C11.8177 1.5 13.5 3.18225 13.5 5.25V7.5C13.5 7.914 13.1648 8.25 12.75 8.25C12.3352 8.25 12 7.914 12 7.5V5.25C12 4.0095 10.9905 3 9.75 3H9C8.586 3 8.25 2.664 8.25 2.25C8.25 1.836 7.91325 1.5 7.5 1.5H6C5.58675 1.5 5.25 1.83675 5.25 2.25C5.25 2.66325 4.914 3 4.5 3H3.75C2.5095 3 1.5 4.0095 1.5 5.25V14.25C1.5 15.4905 2.5095 16.5 3.75 16.5H6.75C7.164 16.5 7.5 16.8353 7.5 17.25ZM6.59475 5.03475L4.9245 6.705C4.866 6.76425 4.7715 6.7665 4.71 6.7095L3.88125 5.94975C3.576 5.67 3.10125 5.69175 2.8215 5.99625C2.54175 6.3015 2.562 6.77625 2.868 7.056L3.69675 7.81575C4.01475 8.1075 4.41525 8.25225 4.815 8.25225C5.23875 8.25225 5.66175 8.0895 5.985 7.76625L7.65525 6.096C7.9485 5.80275 7.9485 5.32875 7.65525 5.0355C7.362 4.74225 6.888 4.74225 6.59475 5.0355V5.03475ZM6.59475 9.59475L4.9245 11.265C4.866 11.3243 4.7715 11.3258 4.71 11.2695L3.88125 10.5097C3.576 10.23 3.10125 10.251 2.8215 10.5562C2.54175 10.8615 2.562 11.3363 2.868 11.616L3.69675 12.3757C4.01475 12.6675 4.41525 12.8123 4.815 12.8123C5.23875 12.8123 5.66175 12.6487 5.985 12.3263L7.65525 10.656C7.9485 10.3628 7.9485 9.88875 7.65525 9.5955C7.362 9.30225 6.888 9.3015 6.59475 9.59475ZM18 12.375V15.375C18 16.8225 16.8225 18 15.375 18H11.625C10.1775 18 9 16.8225 9 15.375V12.375C9 10.9275 10.1775 9.75 11.625 9.75H15.375C16.8225 9.75 18 10.9275 18 12.375ZM16.5 12.375C16.5 11.7548 15.9952 11.25 15.375 11.25H11.625C11.0048 11.25 10.5 11.7548 10.5 12.375V15.375C10.5 15.9952 11.0048 16.5 11.625 16.5H15.375C15.9952 16.5 16.5 15.9952 16.5 15.375V12.375ZM14.25 12.75H12.75C12.3352 12.75 12 13.0852 12 13.5C12 13.9148 12.3352 14.25 12.75 14.25H14.25C14.6648 14.25 15 13.9148 15 13.5C15 13.0852 14.6648 12.75 14.25 12.75ZM10.5 7.5C10.5 7.086 10.1648 6.75 9.75 6.75H8.625C8.211 6.75 7.875 7.086 7.875 7.5C7.875 7.914 8.211 8.25 8.625 8.25H9.75C10.1648 8.25 10.5 7.914 10.5 7.5Z" fill="white"/>
</svg>
