<svg width="26" height="26" viewBox="0 0 26 26" fill="none" xmlns="http://www.w3.org/2000/svg">
<circle cx="13" cy="13" r="12.5" fill="white" stroke="#247BA0"/>
<g clip-path="url(#clip0_747_18991)">
<path d="M18.47 7.53003C18.1301 7.19063 17.6694 7 17.189 7C16.7086 7 16.2479 7.19063 15.908 7.53003L7 16.438V19H9.562L18.47 10.092C18.8093 9.75204 18.9998 9.29135 18.9998 8.81103C18.9998 8.33072 18.8093 7.87002 18.47 7.53003ZM9.15 18H8V16.85L14.655 10.2L15.805 11.35L9.15 18ZM17.763 9.38503L16.5095 10.6385L15.362 9.48853L16.615 8.23703C16.7675 8.08453 16.9743 7.99886 17.19 7.99886C17.4057 7.99886 17.6125 8.08453 17.765 8.23703C17.9175 8.38953 18.0032 8.59636 18.0032 8.81203C18.0032 9.0277 17.9175 9.23453 17.765 9.38703L17.763 9.38503Z" fill="black"/>
</g>
<defs>
<clipPath id="clip0_747_18991">
<rect width="12" height="12" fill="white" transform="translate(7 7)"/>
</clipPath>
</defs>
</svg>
