<svg width="19" height="18" viewBox="0 0 19 18" fill="none" xmlns="http://www.w3.org/2000/svg">
<g clip-path="url(#clip0_30_1987)">
<path d="M17.5 4.29296V1.49996C17.5 1.08596 17.1647 0.749957 16.75 0.749957C16.3352 0.749957 16 1.08596 16 1.49996V3.27446L12.0977 0.641207C10.8235 -0.218293 9.1765 -0.218293 7.90225 0.641207L2.65225 4.18421C1.618 4.88246 1 6.04421 1 7.29296V14.25C1 16.3177 2.68225 18 4.75 18H7C7.41475 18 7.75 17.664 7.75 17.25V11.25C7.75 10.8367 8.086 10.5 8.5 10.5H11.5C11.914 10.5 12.25 10.8367 12.25 11.25V17.25C12.25 17.664 12.5852 18 13 18H15.25C17.3177 18 19 16.3177 19 14.25V7.29296C19 6.10721 18.442 4.99946 17.5 4.29296ZM17.5 14.25C17.5 15.4905 16.4905 16.5 15.25 16.5H13.75V11.25C13.75 10.0095 12.7405 8.99996 11.5 8.99996H8.5C7.2595 8.99996 6.25 10.0095 6.25 11.25V16.5H4.75C3.5095 16.5 2.5 15.4905 2.5 14.25V7.29296C2.5 6.54371 2.8705 5.84621 3.4915 5.42771L8.7415 1.88471C9.5065 1.36871 10.4935 1.36871 11.2577 1.88471L16.5077 5.42771C17.1287 5.84621 17.4993 6.54371 17.4993 7.29296L17.5 14.25Z" fill="#247BA0"/>
</g>
<defs>
<clipPath id="clip0_30_1987">
<rect width="19" height="18" fill="white"/>
</clipPath>
</defs>
</svg>
