<svg width="18" height="18" viewBox="0 0 18 18" fill="none" xmlns="http://www.w3.org/2000/svg">
<g clip-path="url(#clip0_806_3113)">
<path d="M18 14.25C18 15.4905 16.9905 16.5 15.75 16.5V17.25C15.75 17.6647 15.4148 18 15 18C14.5852 18 14.25 17.6647 14.25 17.25V16.5H14.049C13.2488 16.5 12.5018 16.0695 12.1005 15.3757C11.8928 15.0165 12.0157 14.5583 12.3735 14.3512C12.7327 14.142 13.1918 14.2665 13.398 14.6243C13.5323 14.8568 13.7813 15 14.0483 15H15.7493C16.1632 15 16.4993 14.664 16.4993 14.25C16.4993 13.9657 16.296 13.7265 16.0155 13.6793L13.7355 13.2997C12.729 13.1318 11.9992 12.2692 11.9992 11.25C11.9992 10.0095 13.0087 9 14.2493 9V8.25C14.2493 7.83525 14.5845 7.5 14.9993 7.5C15.414 7.5 15.7493 7.83525 15.7493 8.25V9H15.9503C16.7505 9 17.4975 9.4305 17.8988 10.1242C18.1065 10.4835 17.9835 10.9417 17.6257 11.1488C17.2657 11.3573 16.8075 11.2327 16.6012 10.8758C16.467 10.6433 16.218 10.5 15.951 10.5H14.25C13.836 10.5 13.5 10.836 13.5 11.25C13.5 11.5343 13.7032 11.7735 13.9838 11.8207L16.2638 12.2003C17.2703 12.3682 18 13.2308 18 14.25ZM14.25 1.5H13.5V0.75C13.5 0.33525 13.1648 0 12.75 0C12.3352 0 12 0.33525 12 0.75V1.5H6V0.75C6 0.33525 5.66475 0 5.25 0C4.83525 0 4.5 0.33525 4.5 0.75V1.5H3.75C1.68225 1.5 0 3.18225 0 5.25V14.25C0 16.3177 1.68225 18 3.75 18H10.5C10.9148 18 11.25 17.6647 11.25 17.25C11.25 16.8353 10.9148 16.5 10.5 16.5H3.75C2.5095 16.5 1.5 15.4905 1.5 14.25V7.5H12.75C13.1648 7.5 13.5 7.16475 13.5 6.75C13.5 6.33525 13.1648 6 12.75 6H1.5V5.25C1.5 4.0095 2.5095 3 3.75 3H14.25C15.4905 3 16.5 4.0095 16.5 5.25V6.75C16.5 7.16475 16.8353 7.5 17.25 7.5C17.6647 7.5 18 7.16475 18 6.75V5.25C18 3.18225 16.3177 1.5 14.25 1.5Z" fill="black"/>
</g>
<defs>
<clipPath id="clip0_806_3113">
<rect width="18" height="18" fill="white"/>
</clipPath>
</defs>
</svg>
