<svg width="18" height="18" viewBox="0 0 18 18" fill="none" xmlns="http://www.w3.org/2000/svg">
<g clip-path="url(#clip0_268_4770)">
<path d="M10 6C9.40666 6 8.82664 6.17595 8.33329 6.50559C7.83994 6.83524 7.45543 7.30377 7.22836 7.85195C7.0013 8.40013 6.94189 9.00333 7.05765 9.58527C7.1734 10.1672 7.45912 10.7018 7.87868 11.1213C8.29824 11.5409 8.83279 11.8266 9.41473 11.9424C9.99667 12.0581 10.5999 11.9987 11.1481 11.7716C11.6962 11.5446 12.1648 11.1601 12.4944 10.6667C12.8241 10.1734 13 9.59334 13 9C13 8.20435 12.6839 7.44129 12.1213 6.87868C11.5587 6.31607 10.7957 6 10 6ZM10 10.5C9.70333 10.5 9.41332 10.412 9.16665 10.2472C8.91997 10.0824 8.72771 9.84811 8.61418 9.57403C8.50065 9.29994 8.47095 8.99834 8.52882 8.70736C8.5867 8.41639 8.72956 8.14912 8.93934 7.93934C9.14912 7.72956 9.41639 7.5867 9.70737 7.52882C9.99834 7.47094 10.2999 7.50065 10.574 7.61418C10.8481 7.72771 11.0824 7.91997 11.2472 8.16665C11.412 8.41332 11.5 8.70333 11.5 9C11.5 9.39783 11.342 9.77936 11.0607 10.0607C10.7794 10.342 10.3978 10.5 10 10.5Z" fill="#247BA0"/>
<path d="M16.9705 10.425L16.6375 10.233C16.7874 9.41733 16.7874 8.58117 16.6375 7.7655L16.9705 7.5735C17.2266 7.42576 17.451 7.22903 17.6311 6.99455C17.8111 6.76006 17.9432 6.4924 18.0198 6.20686C18.0964 5.92132 18.1161 5.62349 18.0776 5.33037C18.0391 5.03725 17.9432 4.75458 17.7955 4.4985C17.6477 4.24242 17.451 4.01795 17.2165 3.8379C16.982 3.65785 16.7144 3.52575 16.4288 3.44915C16.1433 3.37254 15.8455 3.35292 15.5523 3.39142C15.2592 3.42991 14.9766 3.52576 14.7205 3.6735L14.3867 3.86625C13.7564 3.32769 13.032 2.91019 12.25 2.63475V2.25C12.25 1.65326 12.0129 1.08097 11.591 0.65901C11.169 0.237053 10.5967 0 9.99997 0C9.40323 0 8.83094 0.237053 8.40898 0.65901C7.98702 1.08097 7.74997 1.65326 7.74997 2.25V2.63475C6.96801 2.91118 6.24386 3.3297 5.61397 3.86925L5.27872 3.675C4.76155 3.37663 4.14703 3.29593 3.57036 3.45065C2.99368 3.60536 2.50209 3.98283 2.20372 4.5C1.90535 5.01717 1.82465 5.63169 1.97937 6.20836C2.13409 6.78504 2.51155 7.27663 3.02872 7.575L3.36172 7.767C3.2118 8.58267 3.2118 9.41883 3.36172 10.2345L3.02872 10.4265C2.51155 10.7249 2.13409 11.2165 1.97937 11.7931C1.82465 12.3698 1.90535 12.9843 2.20372 13.5015C2.50209 14.0187 2.99368 14.3961 3.57036 14.5509C4.14703 14.7056 4.76155 14.6249 5.27872 14.3265L5.61247 14.1337C6.24304 14.6724 6.96771 15.0899 7.74997 15.3652V15.75C7.74997 16.3467 7.98702 16.919 8.40898 17.341C8.83094 17.7629 9.40323 18 9.99997 18C10.5967 18 11.169 17.7629 11.591 17.341C12.0129 16.919 12.25 16.3467 12.25 15.75V15.3652C13.0319 15.0888 13.7561 14.6703 14.386 14.1307L14.7212 14.3243C15.2384 14.6226 15.8529 14.7033 16.4296 14.5486C17.0063 14.3939 17.4979 14.0164 17.7962 13.4993C18.0946 12.9821 18.1753 12.3676 18.0206 11.7909C17.8659 11.2142 17.4884 10.7226 16.9712 10.4242L16.9705 10.425ZM15.0595 7.593C15.3135 8.5133 15.3135 9.4852 15.0595 10.4055C15.0151 10.5657 15.0252 10.7361 15.0882 10.8899C15.1512 11.0437 15.2635 11.1722 15.4075 11.2552L16.2205 11.7248C16.3928 11.8242 16.5186 11.9881 16.5702 12.1803C16.6217 12.3725 16.5948 12.5773 16.4953 12.7496C16.3959 12.922 16.232 13.0478 16.0398 13.0993C15.8476 13.1509 15.6428 13.124 15.4705 13.0245L14.656 12.5535C14.5119 12.4701 14.3441 12.4369 14.1792 12.4593C14.0142 12.4817 13.8613 12.5584 13.7447 12.6772C13.0772 13.3587 12.2362 13.845 11.3125 14.0835C11.1512 14.125 11.0084 14.2189 10.9064 14.3504C10.8044 14.482 10.7491 14.6438 10.7492 14.8102V15.75C10.7492 15.9489 10.6702 16.1397 10.5296 16.2803C10.3889 16.421 10.1981 16.5 9.99922 16.5C9.80031 16.5 9.60954 16.421 9.46889 16.2803C9.32824 16.1397 9.24922 15.9489 9.24922 15.75V14.811C9.2493 14.6445 9.194 14.4828 9.09202 14.3512C8.99005 14.2196 8.8472 14.1257 8.68597 14.0842C7.76223 13.8448 6.92147 13.3575 6.25447 12.675C6.13786 12.5561 5.98502 12.4795 5.82004 12.4571C5.65505 12.4347 5.4873 12.4678 5.34322 12.5513L4.53022 13.0215C4.44489 13.0715 4.35051 13.1042 4.25252 13.1176C4.15452 13.131 4.05484 13.1249 3.95921 13.0996C3.86359 13.0743 3.77391 13.0303 3.69534 12.9703C3.61677 12.9102 3.55085 12.8352 3.5014 12.7495C3.45194 12.6638 3.41992 12.5692 3.40717 12.4712C3.39442 12.3731 3.4012 12.2734 3.42711 12.178C3.45303 12.0825 3.49757 11.9931 3.55817 11.915C3.61877 11.8368 3.69424 11.7714 3.78022 11.7225L4.59322 11.253C4.73718 11.1699 4.84948 11.0414 4.91247 10.8876C4.97545 10.7338 4.98557 10.5634 4.94122 10.4032C4.68724 9.48295 4.68724 8.51105 4.94122 7.59075C4.98477 7.43091 4.97417 7.26115 4.91108 7.10797C4.84799 6.95479 4.73596 6.8268 4.59247 6.744L3.77947 6.2745C3.60711 6.17504 3.48132 6.01119 3.42978 5.81899C3.37823 5.62679 3.40514 5.42198 3.5046 5.24962C3.60405 5.07727 3.7679 4.95148 3.96011 4.89993C4.15231 4.84838 4.35711 4.87529 4.52947 4.97475L5.34397 5.44575C5.48766 5.52939 5.65506 5.56291 5.81987 5.54105C5.98468 5.51919 6.13755 5.4432 6.25447 5.325C6.92204 4.64351 7.76304 4.15727 8.68672 3.91875C8.84844 3.87717 8.99167 3.78281 9.0937 3.65063C9.19572 3.51844 9.25072 3.35598 9.24997 3.189V2.25C9.24997 2.05109 9.32899 1.86032 9.46964 1.71967C9.61029 1.57902 9.80106 1.5 9.99997 1.5C10.1989 1.5 10.3896 1.57902 10.5303 1.71967C10.671 1.86032 10.75 2.05109 10.75 2.25V3.189C10.7499 3.35547 10.8052 3.51723 10.9072 3.64881C11.0091 3.78039 11.152 3.8743 11.3132 3.91575C12.2372 4.15511 13.0783 4.64241 13.7455 5.325C13.8621 5.44385 14.0149 5.52052 14.1799 5.54292C14.3449 5.56533 14.5126 5.5322 14.6567 5.44875L15.4697 4.9785C15.555 4.92848 15.6494 4.89583 15.7474 4.88243C15.8454 4.86903 15.9451 4.87514 16.0407 4.90043C16.1364 4.92571 16.226 4.96965 16.3046 5.02974C16.3832 5.08982 16.4491 5.16485 16.4985 5.2505C16.548 5.33616 16.58 5.43076 16.5928 5.52884C16.6055 5.62693 16.5987 5.72656 16.5728 5.82202C16.5469 5.91747 16.5024 6.00686 16.4418 6.08503C16.3812 6.1632 16.3057 6.22861 16.2197 6.2775L15.4067 6.747C15.2635 6.83003 15.1518 6.95811 15.089 7.11127C15.0262 7.26443 15.0158 7.43407 15.0595 7.59375V7.593Z" fill="#247BA0"/>
</g>
<defs>
<clipPath id="clip0_268_4770">
<rect width="18" height="18" fill="white"/>
</clipPath>
</defs>
</svg>
