<svg width="18" height="18" viewBox="0 0 18 18" fill="none" xmlns="http://www.w3.org/2000/svg">
<g clip-path="url(#clip0_41_2123)">
<path d="M13.2188 16.3367C12.951 16.4455 12.6675 16.5002 12.375 16.5002H3.75C2.5095 16.5002 1.5 15.4907 1.5 14.2502V3.75023C1.5 2.50973 2.5095 1.50023 3.75 1.50023H7.13625C7.2585 1.50023 7.38 1.50623 7.5 1.51748V5.25023C7.5 6.49073 8.5095 7.50023 9.75 7.50023H14.1097C14.3415 7.50023 14.5605 7.39298 14.7023 7.20998C14.844 7.02698 14.8935 6.78848 14.8365 6.56423C14.6025 5.65148 14.1285 4.81748 13.4625 4.15223L10.8488 1.53848C9.858 0.546977 8.5395 0.000976813 7.13625 0.000976813H3.75C1.68225 0.000226813 0 1.68248 0 3.75023V14.2502C0 16.318 1.68225 18.0002 3.75 18.0002H12.375C12.8603 18.0002 13.3343 17.908 13.7812 17.7272C14.166 17.572 14.3505 17.134 14.1952 16.7507C14.04 16.3667 13.599 16.1822 13.2188 16.3375V16.3367ZM9 1.99448C9.285 2.15798 9.549 2.36048 9.78825 2.59898L12.402 5.21273C12.6367 5.44823 12.8393 5.71298 13.0043 6.00023H9.75C9.336 6.00023 9 5.66423 9 5.25023V1.99448ZM8.232 14.9762C8.55375 15.07 8.88375 14.887 8.976 14.569L9.16725 13.9502H11.394L11.5747 14.569C11.6512 14.8307 11.8905 15.001 12.1508 15.001C12.2063 15.001 12.2625 14.9927 12.3195 14.9762C12.6375 14.8832 12.8197 14.5502 12.7267 14.2322L12.4103 13.15C12.4058 13.1365 12.4043 13.1222 12.3983 13.1095L11.463 9.91373C11.304 9.36773 10.827 9.00098 10.2765 9.00098C9.726 9.00098 9.249 9.36773 9.08925 9.91298L7.8255 14.2322C7.7325 14.5502 7.91475 14.8832 8.23275 14.9762H8.232ZM10.311 10.2497L11.0422 12.7502H9.53775L10.311 10.2497ZM17.163 14.0882C17.3348 14.371 17.2447 14.7407 16.962 14.9132C16.8645 14.9725 16.7572 15.001 16.6507 15.001C16.4475 15.001 16.2502 14.8982 16.137 14.713L15.1868 13.1515L14.2365 14.713C14.124 14.899 13.926 15.001 13.7228 15.001C13.6163 15.001 13.509 14.9725 13.4115 14.9132C13.1287 14.7407 13.0388 14.3717 13.2105 14.0882L14.4833 11.9965L13.2105 9.90473C13.0388 9.62198 13.1287 9.25223 13.4115 9.07973C13.695 8.90648 14.064 8.99723 14.2365 9.28073L15.1868 10.8422L16.137 9.28073C16.3088 8.99798 16.6777 8.90648 16.962 9.07973C17.2447 9.25223 17.3348 9.62123 17.163 9.90473L15.8903 11.9965L17.163 14.0882ZM5.4 14.4002V10.2002H4.35C4.01925 10.2002 3.75 9.93173 3.75 9.60023C3.75 9.26873 4.0185 9.00023 4.35 9.00023H7.65C7.98075 9.00023 8.25 9.26873 8.25 9.60023C8.25 9.93173 7.9815 10.2002 7.65 10.2002H6.6V14.4002C6.6 14.7317 6.3315 15.0002 6 15.0002C5.6685 15.0002 5.4 14.7317 5.4 14.4002Z" fill="#247BA0"/>
</g>
<defs>
<clipPath id="clip0_41_2123">
<rect width="18" height="18" fill="white"/>
</clipPath>
</defs>
</svg>
