<svg width="70" height="72" viewBox="0 0 70 72" fill="none" xmlns="http://www.w3.org/2000/svg">
<path d="M35.1992 0.688965C16.0457 0.688965 0.462646 16.6021 0.462646 36.1645C0.462646 55.727 16.0457 71.6401 35.1992 71.6401C54.3541 71.6401 69.9357 55.727 69.9357 36.1645C69.9357 16.6021 54.3541 0.688965 35.1992 0.688965ZM45.7711 22.2828H40.8023C37.8754 22.2828 36.7094 22.9846 36.7094 25.0684V29.9949H45.7711L44.2608 37.707H36.7094V57.7584H27.6477V37.707H23.1169V29.9949H27.6477V25.7162C27.6477 19.1995 30.1941 14.5707 37.5869 14.5707C41.5469 14.5707 45.7711 16.1131 45.7711 16.1131V22.2828Z" fill="#179AD3"/>
</svg>
