<svg width="308" height="265" viewBox="0 0 308 265" fill="none" xmlns="http://www.w3.org/2000/svg">
<g clip-path="url(#clip0_172_610)">
<path d="M153.944 264.893C238.503 264.893 307.052 260.912 307.052 256.001C307.052 251.091 238.503 247.11 153.944 247.11C69.385 247.11 0.836426 251.091 0.836426 256.001C0.836426 260.912 69.385 264.893 153.944 264.893Z" fill="#D6D6D6"/>
<path d="M84.1391 123.402L79.9927 124.12L99.3413 234.616L103.488 233.898L84.1391 123.402Z" fill="#263238"/>
<path opacity="0.2" d="M84.1391 123.402L79.9927 124.12L99.3413 234.616L103.488 233.898L84.1391 123.402Z" fill="white"/>
<path d="M100.585 121.024C105.996 109.524 101.01 95.839 89.4486 90.457C77.887 85.075 64.128 90.0345 58.7171 101.534C53.3061 113.034 58.2922 126.719 69.8539 132.101C81.4155 137.483 95.1745 132.524 100.585 121.024Z" fill="#0072A4"/>
<path opacity="0.6" d="M100.585 121.024C105.996 109.524 101.01 95.839 89.4486 90.457C77.887 85.075 64.128 90.0345 58.7171 101.534C53.3061 113.034 58.2922 126.719 69.8539 132.101C81.4155 137.483 95.1745 132.524 100.585 121.024Z" fill="white"/>
<path d="M96.8414 123.914C103.855 114.469 101.843 101.156 92.3469 94.1796C82.8507 87.2031 69.4665 89.2046 62.4525 98.6499C55.4384 108.095 57.4507 121.408 66.9469 128.384C76.4431 135.361 89.8273 133.359 96.8414 123.914Z" fill="#0072A4"/>
<path d="M67.1677 113.288L73.1692 111.717C73.1692 111.717 73.5561 107.17 71.2977 97.8859C72.313 97.5115 73.3764 97.2815 74.4563 97.2026C75.5381 97.2576 78.4046 107.523 78.4046 107.523C78.4046 107.523 89.0887 104.217 89.7836 104.539C90.2259 104.743 90.6996 106.329 90.9839 107.452C91.068 107.772 91.0346 108.11 90.8898 108.407C90.745 108.703 90.4983 108.939 90.1943 109.07L89.8389 109.235L91.7973 119.666C91.8636 120.053 91.7821 120.45 91.5688 120.78C91.3554 121.11 91.0257 121.349 90.6444 121.449L80.5367 123.954C79.5367 124.201 78.4852 124.14 77.5202 123.782L76.2409 123.303L70.1053 125.235L67.1677 113.288Z" fill="#0072A4"/>
<path opacity="0.7" d="M67.1677 113.288L73.1692 111.717C73.1692 111.717 73.5561 107.17 71.2977 97.8859C72.313 97.5115 73.3764 97.2815 74.4563 97.2026C75.5381 97.2576 78.4046 107.523 78.4046 107.523C78.4046 107.523 89.0887 104.217 89.7836 104.539C90.2259 104.743 90.6996 106.329 90.9839 107.452C91.068 107.772 91.0346 108.11 90.8898 108.407C90.745 108.703 90.4983 108.939 90.1943 109.07L89.8389 109.235L91.7973 119.666C91.8636 120.053 91.7821 120.45 91.5688 120.78C91.3554 121.11 91.0257 121.349 90.6444 121.449L80.5367 123.954C79.5367 124.201 78.4852 124.14 77.5202 123.782L76.2409 123.303L70.1053 125.235L67.1677 113.288Z" fill="white"/>
<path d="M158.847 193.882L157.055 189.169C133.081 190.269 130.396 181.315 130.143 178.424C129.693 173.123 134.51 168.292 140.89 167.656C149.679 166.761 155.539 174.591 158.524 179.752C163.048 174.332 171.806 169.855 178.407 169.855C183.461 169.855 187.054 172.212 188.254 177.003C189.218 180.843 187.852 183.223 186.533 184.7C180.958 190.983 164.872 189.742 160.04 189.248L158.847 193.882ZM161.69 184.378C168.971 185.014 179.56 184.543 182.537 181.236C183.011 180.702 183.501 180.152 183.074 178.448C182.466 176.021 181.021 175.22 178.407 175.22C172.564 175.188 164.351 180.137 161.69 184.378ZM142.249 172.918C141.985 172.92 141.721 172.936 141.459 172.966C137.842 173.327 135.331 175.919 135.505 178C135.71 180.356 140.124 184.323 154.946 183.954C153.083 180.278 148.629 172.918 142.249 172.918Z" fill="#263238"/>
<path d="M210.365 186.404H106.295V257.509H210.365V186.404Z" fill="#0072A4"/>
<path opacity="0.2" d="M210.365 186.404H106.295V257.509H210.365V186.404Z" fill="white"/>
<path opacity="0.2" d="M210.365 210.98H106.295V257.517H210.365V210.98Z" fill="black"/>
<path d="M184.108 186.404H175.651V257.509H184.108V186.404Z" fill="#263238"/>
<path d="M127.111 186.404H120.904V257.509H127.111V186.404Z" fill="#263238"/>
<path opacity="0.2" d="M147.642 186.404H106.295V257.509H147.642V186.404Z" fill="black"/>
<path d="M95.3269 211.342C92.0498 211.679 81.1761 212.504 77.4016 208.271C76.7662 207.578 76.3247 206.732 76.121 205.817C75.9173 204.902 75.9586 203.95 76.2408 203.055C77.0304 199.819 79.4784 198.209 82.8976 198.209C87.3671 198.209 93.2896 201.249 96.3219 204.917C98.3434 201.422 102.3 196.128 108.246 196.733C112.565 197.165 115.827 200.432 115.519 204.021C115.353 205.954 113.529 212.033 97.3089 211.287L96.1008 214.468L95.3269 211.342ZM82.9055 201.752C81.1367 201.752 80.1654 202.325 79.7469 203.966C79.612 204.284 79.5745 204.633 79.6391 204.972C79.7038 205.31 79.8676 205.621 80.1101 205.867C82.1237 208.129 89.286 208.428 94.2214 207.996C92.413 205.121 86.8538 201.752 82.9055 201.752ZM98.7935 207.744C108.822 207.996 111.815 205.302 111.949 203.715C112.068 202.309 110.37 200.573 107.922 200.314C107.735 200.303 107.548 200.303 107.361 200.314C103.05 200.283 100.033 205.262 98.7935 207.744Z" fill="#0072A4"/>
<path d="M61.2766 257.509H131.683V209.402H61.2766V257.509Z" fill="#0072A4"/>
<path opacity="0.6" d="M61.2766 257.509H131.683V209.402H61.2766V257.509Z" fill="white"/>
<path opacity="0.1" d="M61.2766 257.517H131.683V226.029H61.2766V257.517Z" fill="black"/>
<path opacity="0.2" d="M103.705 257.509H131.683V209.402H103.705V257.509Z" fill="white"/>
<path d="M79.0443 257.509H84.7615V209.402H79.0443V257.509Z" fill="#0072A4"/>
<path d="M117.603 257.509H121.804V209.402H117.603V257.509Z" fill="#0072A4"/>
<path d="M212.402 192.786C212.402 192.786 217.93 188.199 222.668 192.786C227.406 197.373 228.33 225.774 228.33 225.774" stroke="#0072A4" stroke-width="1.25498" stroke-miterlimit="10"/>
<path d="M228.765 231.296C228.765 231.296 225.503 197.931 237.783 183.911" stroke="#0072A4" stroke-width="1.25498" stroke-miterlimit="10"/>
<path d="M227.564 227.777C227.564 227.777 230.075 189.786 220.868 181.366" stroke="#0072A4" stroke-width="1.25498" stroke-miterlimit="10"/>
<path d="M228.764 227.777C228.764 227.777 228.977 202.643 235.824 198.779C242.67 194.915 246.137 207.599 246.137 207.599" stroke="#0072A4" stroke-width="1.25498" stroke-miterlimit="10"/>
<path d="M226.024 227.777C226.024 227.777 227.145 208.51 221.839 201.622C216.532 194.734 210.957 204.575 210.957 204.575" stroke="#0072A4" stroke-width="1.25498" stroke-miterlimit="10"/>
<path d="M227.88 230.361C227.88 230.361 224.445 185.293 230.123 177.659" stroke="#0072A4" stroke-width="1.25498" stroke-miterlimit="10"/>
<path d="M241.652 202.431C241.652 202.431 238.24 203.688 239.283 206.641C240.325 209.594 251.128 214.495 251.128 214.495C251.128 214.495 255.645 210.372 251.499 203.672C247.353 196.972 241.747 200.318 241.652 202.431Z" fill="#0072A4"/>
<path opacity="0.2" d="M241.652 202.431C241.652 202.431 238.24 203.688 239.283 206.641C240.325 209.594 251.128 214.495 251.128 214.495C251.128 214.495 255.645 210.372 251.499 203.672C247.353 196.972 241.747 200.318 241.652 202.431Z" fill="white"/>
<path d="M226.814 196.807C226.814 196.807 230.446 196.658 230.659 199.776C230.873 202.894 222.763 211.511 222.763 211.511C222.763 211.511 216.998 209.437 218.238 201.661C219.478 193.886 225.913 194.891 226.814 196.807Z" fill="#0072A4"/>
<path opacity="0.2" d="M226.814 196.807C226.814 196.807 230.446 196.658 230.659 199.776C230.873 202.894 222.763 211.511 222.763 211.511C222.763 211.511 216.998 209.437 218.238 201.661C219.478 193.886 225.913 194.891 226.814 196.807Z" fill="white"/>
<path d="M223.734 181.931C223.734 181.931 226.158 181.672 225.969 180.203C225.779 178.735 216.548 174.957 211.1 181.067C211.1 181.067 214.59 187.021 219.628 187.1C224.666 187.178 223.734 181.931 223.734 181.931Z" fill="#0072A4"/>
<path opacity="0.2" d="M223.734 181.931C223.734 181.931 226.158 181.672 225.969 180.203C225.779 178.735 216.548 174.957 211.1 181.067C211.1 181.067 214.59 187.021 219.628 187.1C224.666 187.178 223.734 181.931 223.734 181.931Z" fill="white"/>
<path d="M228.251 178.326C228.251 178.326 226.056 179.386 225.448 178.036C224.84 176.685 230.652 168.61 238.517 170.967C238.517 170.967 238.722 177.855 234.49 180.565C230.257 183.274 228.251 178.326 228.251 178.326Z" fill="#0072A4"/>
<path opacity="0.2" d="M228.251 178.326C228.251 178.326 226.056 179.386 225.448 178.036C224.84 176.685 230.652 168.61 238.517 170.967C238.517 170.967 238.722 177.855 234.49 180.565C230.257 183.274 228.251 178.326 228.251 178.326Z" fill="white"/>
<path d="M216.777 201.245C216.777 201.245 218.451 199.902 216.651 199.25C214.851 198.598 205.991 198.779 205.896 207.505C205.896 207.505 216.209 209.209 217.488 205.887C218.767 202.565 216.777 201.245 216.777 201.245Z" fill="#0072A4"/>
<path opacity="0.2" d="M216.777 201.245C216.777 201.245 218.451 199.902 216.651 199.25C214.851 198.598 205.991 198.779 205.896 207.505C205.896 207.505 216.209 209.209 217.488 205.887C218.767 202.565 216.777 201.245 216.777 201.245Z" fill="white"/>
<path d="M237.814 181.672C237.814 181.672 236.14 180.329 237.948 179.677C239.756 179.025 248.609 179.206 248.695 187.932C248.695 187.932 238.382 189.636 237.111 186.314C235.84 182.992 237.814 181.672 237.814 181.672Z" fill="#0072A4"/>
<path opacity="0.2" d="M237.814 181.672C237.814 181.672 236.14 180.329 237.948 179.677C239.756 179.025 248.609 179.206 248.695 187.932C248.695 187.932 238.382 189.636 237.111 186.314C235.84 182.992 237.814 181.672 237.814 181.672Z" fill="white"/>
<path d="M232.358 188.702C232.358 188.702 232.215 187.068 233.542 187.712C234.869 188.356 239.48 193.304 234.695 198.009C234.695 198.009 228.251 193.257 229.412 190.791C230.573 188.325 232.358 188.702 232.358 188.702Z" fill="#0072A4"/>
<path opacity="0.2" d="M232.358 188.702C232.358 188.702 232.215 187.068 233.542 187.712C234.869 188.356 239.48 193.304 234.695 198.009C234.695 198.009 228.251 193.257 229.412 190.791C230.573 188.325 232.358 188.702 232.358 188.702Z" fill="white"/>
<path d="M215.285 191.035C215.285 191.035 216.288 189.731 214.819 189.566C213.35 189.401 206.796 191.137 208.32 197.664C208.32 197.664 216.32 197.067 216.659 194.357C216.999 191.647 215.285 191.035 215.285 191.035Z" fill="#0072A4"/>
<path opacity="0.2" d="M215.285 191.035C215.285 191.035 216.288 189.731 214.819 189.566C213.35 189.401 206.796 191.137 208.32 197.664C208.32 197.664 216.32 197.067 216.659 194.357C216.999 191.647 215.285 191.035 215.285 191.035Z" fill="white"/>
<path d="M242.291 251.968H214.867L211.905 222.098H245.253L242.291 251.968Z" fill="#0072A4"/>
<path opacity="0.5" d="M242.291 251.968H214.867L211.905 222.098H245.253L242.291 251.968Z" fill="white"/>
<path d="M246.714 218.8H210.437V225.389H246.714V218.8Z" fill="#0072A4"/>
<path opacity="0.2" d="M246.714 218.8H210.437V225.389H246.714V218.8Z" fill="white"/>
<path d="M158.019 1.98293L147.343 0.145017C145.758 -0.12798 144.25 0.929291 143.975 2.5065L142.127 13.1247C141.853 14.702 142.916 16.2018 144.502 16.4748L155.177 18.3127C156.763 18.5857 158.271 17.5285 158.545 15.9513L160.393 5.33301C160.667 3.75581 159.604 2.25592 158.019 1.98293Z" fill="#0072A4"/>
<path opacity="0.6" d="M156.313 6.78363C155.476 4.71794 153.154 5.05567 151.74 6.31236C150.848 4.6551 148.763 3.55549 147.271 5.22847C144.768 8.04817 148.29 11.669 149.995 13.1456L150.477 13.5619L151.077 13.3341C153.201 12.5094 157.742 10.2788 156.313 6.78363Z" fill="white"/>
<path d="M151.82 16.4287C151.82 16.4287 148.811 20.9528 143.726 21.6518C143.726 21.6518 146.663 20.5836 147.342 15.4469L151.82 16.4287Z" fill="#0072A4"/>
<path d="M162.82 250.229H155.002C154.875 250.229 154.751 250.273 154.652 250.353C154.553 250.433 154.484 250.544 154.458 250.668L153.186 256.363C153.135 256.609 153.183 256.865 153.321 257.075C153.458 257.285 153.674 257.433 153.921 257.486C153.988 257.498 154.058 257.498 154.126 257.486C156.653 257.486 158.501 257.297 161.675 257.297C163.633 257.297 169.532 257.494 172.233 257.494C174.933 257.494 175.289 254.847 174.183 254.596C169.224 253.527 165.497 252.035 163.918 250.621C163.77 250.487 163.596 250.384 163.408 250.316C163.22 250.249 163.02 250.219 162.82 250.229Z" fill="#263238"/>
<path d="M195.97 250.024H188.152C188.024 250.025 187.901 250.069 187.802 250.149C187.703 250.229 187.634 250.34 187.607 250.464L186.336 256.159C186.284 256.404 186.333 256.66 186.47 256.871C186.608 257.081 186.823 257.229 187.07 257.282C187.138 257.29 187.207 257.29 187.276 257.282C189.81 257.235 191.65 257.085 194.825 257.085C196.783 257.085 202.682 257.29 205.382 257.29C208.083 257.29 208.438 254.635 207.333 254.391C202.374 253.315 198.647 251.823 197.067 250.409C196.767 250.142 196.372 250.003 195.97 250.024Z" fill="#263238"/>
<path d="M158.674 106.102H192.827C196.073 123.735 205.359 195.115 198.071 250.723L186.668 251.964C186.668 251.964 188.437 166.509 178.25 139.215C177.073 153.824 175.676 169.368 174.468 177.631C171.498 197.989 164.802 251.037 164.802 251.037L153.241 251.344C153.241 251.344 155.776 199.89 156.882 179.869C158.106 158.176 158.627 110.563 158.674 106.102Z" fill="#263238"/>
<path opacity="0.2" d="M158.674 106.102H192.827C196.073 123.735 205.359 195.115 198.071 250.723L186.668 251.964C186.668 251.964 188.437 166.509 178.25 139.215C177.073 153.824 175.676 169.368 174.468 177.631C171.498 197.989 164.802 251.037 164.802 251.037L153.241 251.344C153.241 251.344 155.776 199.89 156.882 179.869C158.106 158.176 158.627 110.563 158.674 106.102Z" fill="white"/>
<path opacity="0.2" d="M178.25 139.223C179.931 144.007 181.207 148.923 182.064 153.919C183.019 140.92 179.197 127.135 179.197 127.135L178.25 139.223Z" fill="black"/>
<path d="M193.111 106.51H158.737V110.579L193.554 110.162L193.111 106.51Z" fill="#263238"/>
<path d="M169.792 111.906H171.016V104.68H169.792V111.906Z" fill="#263238"/>
<path d="M187.181 111.906H188.405V104.68H187.181V111.906Z" fill="#263238"/>
<path d="M177.444 110.359H183.801V105.803H177.444V110.359Z" fill="white"/>
<path opacity="0.2" d="M169.792 111.906H171.016V104.68H169.792V111.906Z" fill="white"/>
<path opacity="0.2" d="M187.181 111.906H188.405V104.68H187.181V111.906Z" fill="white"/>
<path d="M228.835 64.8743L231.726 61.921C231.726 61.921 232.879 57.4833 233.542 56.6665C234.205 55.8496 239.235 53.5248 239.235 53.5248C239.235 53.5248 240.965 53.6112 241.209 53.9332C241.454 54.2552 240.633 61.7325 239.891 62.7143C239.148 63.6961 235.524 64.5208 235.026 64.6858C234.529 64.8507 229.42 70.0188 229.42 70.0188L228.835 64.8743Z" fill="#EBB376"/>
<path d="M189.708 47.3277C195.101 47.9796 205.722 72.3673 209.781 74.5429C213.84 76.7186 229.933 63.052 229.933 63.052L233.992 68.0238C233.992 68.0238 215.719 87.4397 208.533 85.3034C201.347 83.167 191.161 64.7957 188.073 59.0463C184.986 53.297 189.708 47.3277 189.708 47.3277Z" fill="#0072A4"/>
<path opacity="0.6" d="M233.992 68.0238C233.992 68.0238 215.719 87.4397 208.533 85.3033C205.375 84.3529 201.695 80.3237 198.268 75.6111C194.532 70.3062 191.13 64.7767 188.081 59.0541C187.415 57.7435 187.054 56.3007 187.024 54.8325C186.994 53.3642 187.296 51.908 187.907 50.5715C188.369 49.4301 188.977 48.353 189.716 47.3669C195.109 48.0188 205.73 72.4143 209.789 74.59C213.848 76.7656 229.941 63.0913 229.941 63.0913L233.992 68.0238Z" fill="white"/>
<path opacity="0.2" d="M198.26 75.5718C194.524 70.267 191.122 64.7375 188.073 59.0149C187.407 57.7042 187.046 56.2615 187.016 54.7932C186.986 53.325 187.288 51.8688 187.899 50.5322C190.971 54.2944 197.217 63.3269 198.26 75.5718Z" fill="black"/>
<path d="M189.707 47.3277C189.707 47.3277 167.984 46.3067 151.804 50.3752C151.804 50.3752 158.911 86.1517 158.674 106.51H193.111C193.111 106.51 195.354 68.3302 189.707 47.3277Z" fill="#0072A4"/>
<path opacity="0.6" d="M193.111 106.51H158.682C158.682 104.295 158.682 101.907 158.524 99.394C158.224 93.519 157.552 87.0077 156.739 80.7086L156.502 78.8707C155.949 74.7785 155.357 70.82 154.781 67.207C153.201 57.5069 151.804 50.3752 151.804 50.3752C167.984 46.3145 189.707 47.3277 189.707 47.3277C195.346 68.338 193.111 106.51 193.111 106.51Z" fill="white"/>
<path opacity="0.2" d="M179.639 84.8007C179.639 84.8007 173.693 98.8992 158.524 99.394C158.224 93.519 157.552 87.0078 156.739 80.7086L179.639 84.8007Z" fill="black"/>
<path d="M164.486 48.7492C167.644 51.5689 175.249 50.5243 175.249 50.5243C175.249 50.5243 179.987 49.2283 179.016 47.7439C176.204 47.2805 174.846 45.9767 174.278 44.3115C173.965 43.2763 173.868 42.1885 173.993 41.1148C174.037 40.519 174.116 39.9263 174.23 39.3398L164.754 32.3808C166.026 36.9677 167.542 45.419 164.486 48.7492Z" fill="#EBB376"/>
<path opacity="0.2" d="M166.973 36.8028C167.344 42.4422 172.003 43.9974 174.285 44.3116C173.973 43.2763 173.876 42.1885 174.001 41.1148L166.973 36.8028Z" fill="black"/>
<path d="M180.777 17.764C180.777 17.764 183.414 26.2466 179.285 30.2759C175.155 34.3052 172.722 18.1488 172.722 18.1488L180.777 17.764Z" fill="#263238"/>
<path d="M166.879 39.1828C168.066 40.466 169.643 41.3267 171.369 41.6331C173.095 41.9396 174.874 41.6748 176.434 40.8793C178.471 39.8863 180.052 38.1593 180.856 36.0489C180.967 35.7583 181.061 35.4598 181.148 35.1535C182.625 29.5062 181.938 20.1203 175.786 17.4891C174.428 16.9018 172.942 16.6696 171.468 16.8146C169.994 16.9595 168.582 17.4768 167.366 18.3173C166.15 19.1578 165.17 20.2936 164.52 21.6168C163.869 22.94 163.57 24.4067 163.649 25.8775C163.894 32.1846 163.736 35.8918 166.879 39.1828Z" fill="#EBB376"/>
<path d="M173.235 27.8333C173.188 28.3438 173.488 28.7679 173.828 28.7758C174.167 28.7836 174.444 28.3673 174.459 27.8568C174.475 27.3463 174.199 26.9222 173.867 26.9143C173.535 26.9064 173.251 27.3149 173.235 27.8333Z" fill="#263238"/>
<path d="M179.071 27.951C179.024 28.4616 179.332 28.8857 179.663 28.8936C179.995 28.9014 180.279 28.4851 180.295 27.9746C180.311 27.4641 180.035 27.0399 179.703 27.0321C179.371 27.0242 179.087 27.4641 179.071 27.951Z" fill="#263238"/>
<path d="M177.215 28.1632C177.793 29.7477 178.59 31.2441 179.584 32.6087C179.223 32.8529 178.813 33.0159 178.382 33.0864C177.951 33.1569 177.51 33.1333 177.089 33.0172L177.215 28.1632Z" fill="#D58745"/>
<path d="M171.459 25.9168C171.514 25.9259 171.571 25.9205 171.623 25.9012C171.676 25.8819 171.723 25.8494 171.759 25.8068C171.988 25.5053 172.284 25.2605 172.623 25.0916C172.963 24.9226 173.337 24.8341 173.717 24.8329C173.757 24.8372 173.797 24.8338 173.835 24.8226C173.873 24.8115 173.908 24.793 173.939 24.7682C173.97 24.7434 173.996 24.7127 174.014 24.678C174.033 24.6432 174.045 24.6051 174.049 24.5658C174.056 24.4858 174.03 24.4064 173.979 24.3447C173.927 24.2829 173.853 24.2439 173.773 24.2359C173.292 24.2236 172.816 24.3254 172.383 24.5331C171.951 24.7407 171.574 25.0482 171.285 25.4298C171.235 25.4918 171.211 25.5707 171.219 25.6498C171.226 25.729 171.264 25.8021 171.325 25.8539C171.365 25.8835 171.41 25.9048 171.459 25.9168Z" fill="#263238"/>
<path d="M181.621 25.9954C181.678 26.0145 181.739 26.0145 181.795 25.9954C181.869 25.9626 181.927 25.9023 181.957 25.8273C181.986 25.7523 181.985 25.6688 181.953 25.5948C181.759 25.1554 181.462 24.7686 181.087 24.4666C180.712 24.1646 180.27 23.9563 179.797 23.859C179.719 23.8477 179.639 23.8679 179.575 23.915C179.512 23.9621 179.47 24.0323 179.458 24.1103C179.45 24.1887 179.472 24.2671 179.518 24.3308C179.565 24.3945 179.633 24.439 179.71 24.4559C180.082 24.5406 180.428 24.7114 180.72 24.9543C181.012 25.1973 181.243 25.5056 181.392 25.854C181.415 25.895 181.448 25.9296 181.488 25.9543C181.529 25.9791 181.574 25.9932 181.621 25.9954Z" fill="#263238"/>
<path d="M168.458 18.1017L168.876 20.8743C168.411 21.1126 168.053 21.5163 167.873 22.0052C167.693 22.4942 167.704 23.0325 167.905 23.5134C168.869 25.8225 167.637 29.4827 165.876 30.9828C165.876 30.9828 165.789 29.9696 164.936 30.2367C164.083 30.5037 164.47 35.7347 166.215 38.2324C163.985 35.9438 162.39 33.1182 161.588 30.0325C160.127 24.9507 160.277 21.1806 161.28 19.1699L168.458 18.1017Z" fill="#263238"/>
<path d="M160.798 30.9906C161.126 31.7124 161.595 32.362 162.178 32.9014C162.761 33.4408 163.446 33.8593 164.194 34.1324C166.184 34.8471 167.352 33.1034 166.91 31.1556C166.515 29.4276 165.023 26.9142 162.962 27.0635C160.901 27.2127 160.009 29.2155 160.798 30.9906Z" fill="#EBB376"/>
<path d="M177.571 34.5644C177.305 35.2936 177.097 36.0419 176.947 36.8029H176.536C174.672 36.7165 173.835 36.0646 173.472 35.3655C173.301 35.0217 173.217 34.6415 173.227 34.2581C173.226 34.043 173.255 33.8288 173.314 33.6219C174.441 34.1784 175.674 34.4915 176.931 34.5408L177.571 34.5644Z" fill="#263238"/>
<path d="M176.931 34.5252L176.733 35.1771C174.98 35.0907 173.756 34.8001 173.227 34.2424C173.226 34.0274 173.255 33.8132 173.314 33.6062C174.441 34.1627 175.674 34.4759 176.931 34.5252Z" fill="white"/>
<path d="M176.536 36.7871C174.673 36.7007 173.836 36.0488 173.472 35.3498C174.181 35.3955 174.876 35.5657 175.526 35.8524C175.952 36.0519 176.305 36.3786 176.536 36.7871Z" fill="#DE5753"/>
<path d="M170.393 19.0521C170.393 19.0521 170.811 22.3666 166.65 24.0789C162.488 25.7911 160.972 27.2206 160.972 27.2206C160.972 27.2206 158.161 19.0914 163.262 16.091C163.262 16.091 163.365 14.5202 167.74 13.0357C172.114 11.5512 178.384 12.2503 181.227 17.4891C183.359 21.4163 181.385 24.2202 181.385 24.2202C181.385 24.2202 180.966 21.9425 176.908 21.4241C174.588 21.1157 172.364 20.3061 170.393 19.0521Z" fill="#263238"/>
<path d="M178.36 50.0688L177.444 54.5379C177.444 54.5379 182.68 76.2473 183.761 87.5261L181.858 89.4268L178.858 87.5261C178.858 87.5261 178.589 64.5915 175.944 54.962L171.206 51.0977L174.941 49.896L178.36 50.0688Z" fill="#263238"/>
<path d="M165.536 44.5316L174.617 48.6001L175.147 45.3327L178.479 46.503C179.062 46.7063 179.559 47.099 179.89 47.6177C180.221 48.1364 180.366 48.7509 180.303 49.362L179.924 52.9435L175.32 50.438L173.022 53.6661L162.125 48.443L165.536 44.5316Z" fill="#0072A4"/>
<path opacity="0.7" d="M165.536 44.5316L174.617 48.6001L175.147 45.3327L178.479 46.503C179.062 46.7063 179.559 47.099 179.89 47.6177C180.221 48.1364 180.366 48.7509 180.303 49.362L179.924 52.9435L175.32 50.438L173.022 53.6661L162.125 48.443L165.536 44.5316Z" fill="white"/>
<path d="M189.637 79.0906L200.566 77.0721C200.566 77.0721 202.595 75.0535 203.535 75.0535C204.475 75.0535 216.659 78.7765 216.659 78.7765C216.659 78.7765 213.374 82.0439 211.811 82.6644C210.247 83.2849 203.069 81.7297 203.069 81.7297L192.448 84.5258L189.637 79.0906Z" fill="#EBB376"/>
<path d="M151.804 50.3752C156.795 48.5687 164.17 77.9596 165.734 80.2923C167.297 82.625 196.665 76.8678 196.665 76.8678L199.034 83.7089C199.034 83.7089 174.199 92.2544 163.894 90.55C153.589 88.8457 151.259 73.9224 148.74 65.0706C146.221 56.2188 148.164 51.679 151.804 50.3752Z" fill="#0072A4"/>
<path opacity="0.7" d="M151.804 50.3752C156.795 48.5687 164.17 77.9596 165.734 80.2923C167.297 82.625 196.665 76.8678 196.665 76.8678L199.034 83.7089C199.034 83.7089 174.199 92.2544 163.894 90.55C153.589 88.8457 151.259 73.9224 148.74 65.0706C146.221 56.2188 148.164 51.679 151.804 50.3752Z" fill="white"/>
<path d="M230.699 50.3516C230.924 49.8608 231.252 49.4234 231.66 49.0685C232.069 48.7137 232.549 48.4495 233.068 48.2938C234.025 48.0128 235.045 48.032 235.99 48.3488C236.941 48.6564 237.771 49.2558 238.359 50.061C238.51 50.2589 238.64 50.4722 238.746 50.6972C238.858 50.9181 238.948 51.1496 239.014 51.3884L239.117 51.734L239.164 52.0639L239.251 52.7236C239.4 54.5155 238.832 56.2933 237.672 57.6719C236.574 58.9713 235.144 59.9533 233.534 60.5151C231.997 61.062 230.373 61.3281 228.741 61.3006C227.948 61.3007 227.156 61.2429 226.372 61.1278C225.656 60.987 224.929 60.9133 224.2 60.9078C223.551 60.9004 222.918 61.1076 222.4 61.4969C222.17 61.6517 221.995 61.8748 221.9 62.1343C221.805 62.3938 221.795 62.6765 221.871 62.9421C221.968 63.1822 222.15 63.3786 222.383 63.4943C222.615 63.61 222.883 63.6371 223.134 63.5705C223.281 63.5148 223.409 63.4207 223.506 63.2983C223.603 63.1759 223.665 63.0296 223.685 62.875C223.705 62.7205 223.683 62.5633 223.621 62.4202C223.559 62.2772 223.459 62.1535 223.332 62.0624C223.546 62.1113 223.739 62.228 223.882 62.3951C224.024 62.5621 224.108 62.7706 224.121 62.9892C224.135 63.236 224.083 63.482 223.969 63.7016C223.855 63.9212 223.684 64.1065 223.474 64.2381C223.254 64.3725 223.005 64.4514 222.747 64.4679C222.49 64.4843 222.232 64.4378 221.997 64.3323C221.522 64.1464 221.139 63.7826 220.931 63.3191C220.755 62.8583 220.73 62.3543 220.857 61.8781C220.985 61.4018 221.259 60.9774 221.642 60.6644C222.327 60.0836 223.183 59.7392 224.082 59.6826C224.889 59.6452 225.698 59.6821 226.498 59.7925C227.23 59.8645 227.967 59.8776 228.701 59.8318C230.148 59.7731 231.573 59.4593 232.91 58.905C234.2 58.3993 235.333 57.565 236.195 56.4859C237.02 55.3936 237.383 54.0235 237.206 52.6687C237.166 52.3137 237.055 51.9702 236.88 51.6584C236.704 51.3467 236.468 51.073 236.185 50.8534C235.902 50.6339 235.577 50.4729 235.23 50.38C234.884 50.287 234.522 50.2641 234.166 50.3124C232.681 50.5716 231.599 51.8832 230.944 53.1399L230.699 50.3516Z" fill="#0072A4"/>
<path d="M210.184 43.4005C210.307 42.8705 210.314 42.3203 210.203 41.7876C210.093 41.2548 209.868 40.7521 209.544 40.3137C208.956 39.5057 208.127 38.9014 207.175 38.5858C206.233 38.2497 205.207 38.2195 204.246 38.4994C204.004 38.5629 203.77 38.6552 203.551 38.7743C203.326 38.875 203.114 39.0015 202.919 39.1513L202.619 39.3633L202.374 39.599L201.9 40.0624C200.687 41.3954 200.051 43.1511 200.132 44.9478C200.204 46.6435 200.73 48.2894 201.656 49.7153C202.532 51.089 203.65 52.2943 204.956 53.2734C205.589 53.7627 206.26 54.2013 206.962 54.585C207.611 54.9157 208.232 55.2993 208.818 55.7317C209.33 56.1309 209.703 56.6805 209.884 57.3026C209.967 57.5661 209.967 57.8489 209.882 58.1119C209.797 58.375 209.632 58.6054 209.41 58.7714C209.186 58.9015 208.923 58.9461 208.669 58.897C208.414 58.8478 208.187 58.7083 208.028 58.5043C207.947 58.3693 207.904 58.2148 207.903 58.0573C207.903 57.8998 207.946 57.7452 208.027 57.6099C208.108 57.4746 208.224 57.3636 208.363 57.2887C208.503 57.2139 208.66 57.178 208.818 57.1848C208.617 57.0856 208.389 57.055 208.17 57.0976C207.95 57.1402 207.75 57.2537 207.602 57.4204C207.436 57.6057 207.325 57.8322 207.279 58.0757C207.233 58.3192 207.255 58.5705 207.341 58.8028C207.432 59.0434 207.582 59.258 207.776 59.4278C207.97 59.5976 208.203 59.7174 208.455 59.7767C208.945 59.9162 209.471 59.8627 209.923 59.6275C210.346 59.3688 210.676 58.9849 210.867 58.5297C211.058 58.0746 211.101 57.5712 210.989 57.0906C210.807 56.2128 210.341 55.4184 209.663 54.8285C209.045 54.3101 208.381 53.8475 207.681 53.4461C207.059 53.057 206.467 52.6211 205.912 52.1423C204.803 51.216 203.867 50.1019 203.148 48.8514C202.432 47.6642 202.048 46.3085 202.035 44.9242C202.05 43.5598 202.599 42.2551 203.567 41.2876C203.818 41.0307 204.119 40.8264 204.451 40.687C204.784 40.5475 205.141 40.4757 205.501 40.4757C205.862 40.4757 206.219 40.5475 206.551 40.687C206.883 40.8264 207.184 41.0307 207.436 41.2876C208.447 42.3951 208.502 44.0916 208.226 45.4819L210.184 43.4005Z" fill="#0072A4"/>
<g opacity="0.2">
<path d="M230.699 50.3514C230.924 49.8606 231.252 49.4232 231.66 49.0683C232.069 48.7135 232.549 48.4494 233.068 48.2936C234.024 48.0126 235.045 48.0318 235.99 48.3486C236.941 48.6562 237.771 49.2556 238.359 50.0608C238.51 50.2587 238.639 50.472 238.746 50.697C238.858 50.9179 238.948 51.1495 239.014 51.3882L239.117 51.7338L239.164 52.0637L239.251 52.7234C239.399 54.5153 238.832 56.2932 237.672 57.6717C236.573 58.9711 235.144 59.9531 233.534 60.5149C231.997 61.0618 230.373 61.3279 228.741 61.3004C227.948 61.3005 227.156 61.2427 226.372 61.1276C225.656 60.9868 224.929 60.9132 224.2 60.9077C223.551 60.9002 222.917 61.1074 222.4 61.4967C222.17 61.6516 221.995 61.8746 221.9 62.1341C221.805 62.3936 221.794 62.6763 221.87 62.9419C221.968 63.182 222.15 63.3784 222.383 63.4941C222.615 63.6099 222.883 63.637 223.134 63.5703C223.28 63.5146 223.409 63.4206 223.506 63.2981C223.603 63.1757 223.665 63.0294 223.685 62.8749C223.705 62.7203 223.683 62.5631 223.621 62.4201C223.559 62.277 223.459 62.1534 223.331 62.0623C223.546 62.1111 223.739 62.2278 223.881 62.3949C224.024 62.562 224.108 62.7704 224.121 62.9891C224.135 63.2358 224.083 63.4818 223.969 63.7014C223.855 63.921 223.684 64.1063 223.473 64.2379C223.254 64.3724 223.004 64.4512 222.747 64.4677C222.489 64.4841 222.232 64.4376 221.997 64.3322C221.522 64.1462 221.139 63.7824 220.931 63.3189C220.755 62.8581 220.729 62.3541 220.857 61.8779C220.984 61.4017 221.259 60.9772 221.641 60.6642C222.327 60.0834 223.183 59.739 224.082 59.6824C224.889 59.6451 225.698 59.6819 226.498 59.7923C227.23 59.8643 227.967 59.8774 228.701 59.8316C230.148 59.7729 231.573 59.4591 232.91 58.9048C234.199 58.3992 235.332 57.5648 236.195 56.4857C237.02 55.3934 237.383 54.0233 237.206 52.6685C237.166 52.3135 237.055 51.97 236.88 51.6582C236.704 51.3465 236.468 51.0728 236.185 50.8532C235.901 50.6337 235.577 50.4727 235.23 50.3798C234.883 50.2869 234.521 50.2639 234.165 50.3122C232.681 50.5714 231.599 51.883 230.944 53.1397L230.699 50.3514Z" fill="black"/>
<path d="M210.184 43.4005C210.307 42.8705 210.314 42.3203 210.203 41.7876C210.093 41.2548 209.868 40.7521 209.544 40.3137C208.956 39.5057 208.127 38.9014 207.175 38.5858C206.233 38.2497 205.207 38.2195 204.246 38.4994C204.004 38.5629 203.77 38.6552 203.551 38.7743C203.326 38.875 203.114 39.0015 202.919 39.1513L202.619 39.3633L202.374 39.599L201.9 40.0624C200.687 41.3954 200.051 43.1511 200.132 44.9478C200.204 46.6435 200.73 48.2894 201.656 49.7153C202.532 51.089 203.65 52.2943 204.956 53.2734C205.589 53.7627 206.26 54.2013 206.962 54.585C207.611 54.9157 208.232 55.2993 208.818 55.7317C209.33 56.1309 209.703 56.6805 209.884 57.3026C209.967 57.5661 209.967 57.8489 209.882 58.1119C209.797 58.375 209.632 58.6054 209.41 58.7714C209.186 58.9015 208.923 58.9461 208.669 58.897C208.414 58.8478 208.187 58.7083 208.028 58.5043C207.947 58.3693 207.904 58.2148 207.903 58.0573C207.903 57.8998 207.946 57.7452 208.027 57.6099C208.108 57.4746 208.224 57.3636 208.363 57.2887C208.503 57.2139 208.66 57.178 208.818 57.1848C208.617 57.0856 208.389 57.055 208.17 57.0976C207.95 57.1402 207.75 57.2537 207.602 57.4204C207.436 57.6057 207.325 57.8322 207.279 58.0757C207.233 58.3192 207.255 58.5705 207.341 58.8028C207.432 59.0434 207.582 59.258 207.776 59.4278C207.97 59.5976 208.203 59.7174 208.455 59.7767C208.945 59.9162 209.471 59.8627 209.923 59.6275C210.346 59.3688 210.676 58.9849 210.867 58.5297C211.058 58.0746 211.101 57.5712 210.989 57.0906C210.807 56.2128 210.341 55.4184 209.663 54.8285C209.045 54.3101 208.381 53.8475 207.681 53.4461C207.059 53.057 206.467 52.6211 205.912 52.1423C204.803 51.216 203.867 50.1019 203.148 48.8514C202.432 47.6642 202.048 46.3085 202.035 44.9242C202.05 43.5598 202.599 42.2551 203.567 41.2876C203.818 41.0307 204.119 40.8264 204.451 40.687C204.784 40.5475 205.141 40.4757 205.501 40.4757C205.862 40.4757 206.219 40.5475 206.551 40.687C206.883 40.8264 207.184 41.0307 207.436 41.2876C208.447 42.3951 208.502 44.0916 208.226 45.4819L210.184 43.4005Z" fill="black"/>
</g>
<path d="M219.233 61.7325C224.137 61.1905 229.017 57.4911 231.734 51.8046L232.981 49.1891L209.062 41.0756L208.446 43.9032C207.112 50.061 208.707 55.9438 212.253 59.3526C212.717 59.8094 213.044 60.3853 213.199 61.0162C213.354 61.6471 213.33 62.3083 213.129 62.9263L211.439 68.1887C211.243 68.8116 210.827 69.3432 210.269 69.6864C209.711 70.0297 209.047 70.1616 208.399 70.0581C207.217 69.8566 206.001 70.0912 204.98 70.7178L203.732 71.5033L218.554 76.53L218.057 75.1477C217.631 74.0314 216.811 73.1073 215.751 72.5479C215.173 72.2382 214.728 71.7317 214.495 71.1213C214.263 70.511 214.26 69.8378 214.487 69.2255L216.383 64.026C216.599 63.4197 216.98 62.8848 217.483 62.4801C217.986 62.0754 218.592 61.8167 219.233 61.7325Z" fill="#0072A4"/>
<path d="M203.377 70.0109L219.754 75.5639L218.562 81.062L200.945 75.0927L203.377 70.0109Z" fill="#263238"/>
<path opacity="0.2" d="M207.112 71.2756L216.019 74.2995L214.827 79.7975L204.688 76.3573L207.112 71.2756Z" fill="white"/>
<path d="M213.703 75.2441L208.381 73.441L207.676 75.5004L212.998 77.3036L213.703 75.2441Z" fill="white"/>
<path opacity="0.3" d="M213.114 58.9835C213.551 59.5078 213.843 60.1361 213.962 60.8067C214.081 61.4773 214.023 62.1671 213.793 62.8085L211.763 68.7543C211.361 69.9167 210.871 70.2466 209.465 70.3251C208.64 70.3093 207.825 70.504 207.096 70.8906L209.584 71.7389C209.876 71.6164 210.185 71.5395 210.5 71.5111H210.903C211.172 71.4928 211.429 71.3958 211.643 71.2323C211.856 71.0687 212.016 70.846 212.103 70.5922L215.412 60.9314C215.53 60.5885 215.568 60.223 215.521 59.8633C215.475 59.5037 215.345 59.1596 215.143 58.8578L214.725 58.2216C212.967 55.558 212.319 52.3193 212.916 49.1891L213.951 43.4555L210.358 42.2381L209.568 48.875C209.11 52.056 210.547 56.258 213.114 58.9835Z" fill="white"/>
<path d="M171.506 70.9063L168.726 70.1445L166.041 71.4169L165.441 65.102L170.906 64.5915L171.506 70.9063Z" fill="#0072A4"/>
<path opacity="0.2" d="M171.506 70.9063L168.726 70.1445L166.041 71.4169L165.441 65.102L170.906 64.5915L171.506 70.9063Z" fill="white"/>
<path d="M167.7 59.6118L168.276 59.926L168.876 59.6511L169.358 60.0988L170.014 59.981L170.369 60.5308L171.024 60.5779L171.237 61.1984L171.861 61.4105L171.909 62.0624L172.461 62.4237L172.343 63.0677L172.785 63.5469L172.517 64.1438L172.825 64.7172L172.406 65.2277L172.564 65.8639L172.035 66.2566L172.027 66.9085L171.419 67.1598L171.245 67.7882L170.598 67.8825L170.274 68.448L169.619 68.3773L169.161 68.8485L168.545 68.6129L167.984 68.9585L167.447 68.5815L166.823 68.77L166.397 68.2752L165.741 68.3066L165.449 67.7175L164.81 67.584L164.675 66.9478L164.083 66.6572L164.115 66.0053L163.617 65.5811L163.815 64.9528L163.428 64.4187L163.775 63.861L163.546 63.2563L164.02 62.8007L163.941 62.1488L164.517 61.8268L164.612 61.1749L165.244 61.0099L165.497 60.4051L166.152 60.3973L166.547 59.871L167.187 60.0281L167.7 59.6118Z" fill="#0072A4"/>
<path opacity="0.4" d="M169.139 68.0904C171.26 67.5334 172.525 65.3716 171.965 63.262C171.405 61.1524 169.232 59.8937 167.111 60.4507C164.99 61.0077 163.724 63.1694 164.284 65.2791C164.844 67.3887 167.018 68.6474 169.139 68.0904Z" fill="white"/>
<path d="M168.245 63.9552L168.198 64.6621L168.766 64.615V65.1805L168.182 65.2276L168.126 66.1152L167.566 66.1702L167.629 65.2826L167.147 65.3297L167.084 66.2094L166.531 66.2644L166.587 65.3769L166.042 65.4318V64.8663L166.595 64.8114L166.65 64.1045L166.097 64.1594V63.5939L166.65 63.5389L166.721 62.5257L167.274 62.4786L167.203 63.484H167.684L167.755 62.4708L168.316 62.4158L168.245 63.429L168.821 63.374V63.9395L168.245 63.9552ZM167.684 64.0102H167.203L167.155 64.725L167.637 64.6778L167.684 64.0102Z" fill="#0072A4"/>
<path d="M169.966 65.9424L169.705 63.1069L169.232 63.1541L169.192 62.7692C169.327 62.737 169.452 62.6722 169.555 62.5807C169.668 62.4958 169.751 62.3776 169.792 62.243H170.179L170.527 65.9188L169.966 65.9424Z" fill="#0072A4"/>
</g>
<defs>
<clipPath id="clip0_172_610">
<rect width="306.215" height="264.801" fill="white" transform="translate(0.83667 0.0995941)"/>
</clipPath>
</defs>
</svg>
