<svg width="72" height="72" viewBox="0 0 72 72" fill="none" xmlns="http://www.w3.org/2000/svg">
<path fill-rule="evenodd" clip-rule="evenodd" d="M36.1413 71.6401C55.734 71.6401 71.6169 55.7572 71.6169 36.1645C71.6169 16.5719 55.734 0.688965 36.1413 0.688965C16.5487 0.688965 0.665771 16.5719 0.665771 36.1645C0.665771 55.7572 16.5487 71.6401 36.1413 71.6401ZM36.1414 40.8207L57.3159 22.6949C56.9833 22.4732 56.5399 22.3069 56.0964 22.3069H16.1864C15.743 22.3069 15.2995 22.4732 14.9669 22.6949L36.1414 40.8207ZM34.7001 42.4836C35.5316 43.2042 36.7511 43.2042 37.5825 42.4836L58.3136 24.7458V47.805C58.3136 49.0244 57.3158 50.0222 56.0964 50.0222H16.1863C14.9669 50.0222 13.9691 49.0244 13.9691 47.805V24.8013L34.7001 42.4836Z" fill="#179AD3"/>
</svg>
