<svg width="28" height="27" viewBox="0 0 28 27" fill="none" xmlns="http://www.w3.org/2000/svg">
<path d="M17.7125 18.7875L19.2875 17.2125L15.125 13.05V7.875H12.875V13.95L17.7125 18.7875ZM14 24.75C12.4437 24.75 10.9812 24.4547 9.6125 23.8641C8.24375 23.2734 7.05312 22.4719 6.04062 21.4594C5.02813 20.4469 4.22656 19.2563 3.63594 17.8875C3.04531 16.5187 2.75 15.0562 2.75 13.5C2.75 11.9437 3.04531 10.4812 3.63594 9.1125C4.22656 7.74375 5.02813 6.55312 6.04062 5.54062C7.05312 4.52813 8.24375 3.72656 9.6125 3.13594C10.9812 2.54531 12.4437 2.25 14 2.25C15.5562 2.25 17.0187 2.54531 18.3875 3.13594C19.7563 3.72656 20.9469 4.52813 21.9594 5.54062C22.9719 6.55312 23.7734 7.74375 24.3641 9.1125C24.9547 10.4812 25.25 11.9437 25.25 13.5C25.25 15.0562 24.9547 16.5187 24.3641 17.8875C23.7734 19.2563 22.9719 20.4469 21.9594 21.4594C20.9469 22.4719 19.7563 23.2734 18.3875 23.8641C17.0187 24.4547 15.5562 24.75 14 24.75ZM14 22.5C16.4937 22.5 18.6172 21.6234 20.3703 19.8703C22.1234 18.1172 23 15.9937 23 13.5C23 11.0062 22.1234 8.88281 20.3703 7.12969C18.6172 5.37656 16.4937 4.5 14 4.5C11.5062 4.5 9.38281 5.37656 7.62969 7.12969C5.87656 8.88281 5 11.0062 5 13.5C5 15.9937 5.87656 18.1172 7.62969 19.8703C9.38281 21.6234 11.5062 22.5 14 22.5Z" fill="#2B2B2B"/>
</svg>
