<svg width="70" height="72" viewBox="0 0 70 72" fill="none" xmlns="http://www.w3.org/2000/svg">
<g clip-path="url(#clip0_189_234)">
<path fill-rule="evenodd" clip-rule="evenodd" d="M69.5372 36.1645C69.5372 16.5719 53.9852 0.688965 34.8007 0.688965C15.6163 0.688965 0.064209 16.5719 0.064209 36.1645C0.064209 55.7572 15.6163 71.6401 34.8007 71.6401C53.9852 71.6401 69.5372 55.7572 69.5372 36.1645ZM47.8326 22.5217H43.3004L35.8316 31.2405L29.3741 22.5217H20.0218L31.1964 37.445L20.6056 49.8077H25.1407L33.3149 40.2686L40.4586 49.8077H49.5799L37.9309 34.0799L47.8326 22.5217ZM44.2212 47.037H41.7096L25.3148 25.1469H28.0096L44.2212 47.037Z" fill="#179AD3"/>
</g>
<defs>
<clipPath id="clip0_189_234">
<rect width="69.473" height="70.9512" fill="white" transform="translate(0.064209 0.688965)"/>
</clipPath>
</defs>
</svg>
