<svg width="72" height="72" viewBox="0 0 72 72" fill="none" xmlns="http://www.w3.org/2000/svg">
<path fill-rule="evenodd" clip-rule="evenodd" d="M35.8586 0.688965C55.4381 0.688965 71.3342 16.5851 71.3342 36.1645C71.3342 55.744 55.4381 71.6401 35.8586 71.6401C16.2792 71.6401 0.383057 55.744 0.383057 36.1645C0.383057 16.5851 16.2792 0.688965 35.8586 0.688965ZM52.6994 19.3752C48.4526 15.1248 42.8049 12.7829 36.7878 12.7806C24.3896 12.7806 14.299 22.8673 14.2942 35.2655C14.2925 39.2286 15.3283 43.0972 17.2966 46.5071L14.1055 58.1594L26.0297 55.0326C29.3151 56.8239 33.0141 57.7679 36.7788 57.7696H36.7881C49.185 57.7696 59.2764 47.6816 59.2814 35.2833C59.2837 29.2749 56.9462 23.6253 52.6994 19.3752ZM36.7879 53.9718H36.7804C33.4257 53.9704 30.1353 53.0695 27.2648 51.3667L26.582 50.9615L19.5062 52.8171L21.3949 45.9203L20.9503 45.2133C19.0788 42.2377 18.0905 38.7982 18.0919 35.2668C18.096 24.962 26.483 16.5783 36.7954 16.5783C41.789 16.5802 46.483 18.5269 50.0128 22.0595C53.5427 25.5923 55.4855 30.2881 55.4836 35.2819C55.4794 45.5875 47.0926 53.9716 36.7879 53.9718ZM47.043 39.9741C46.4809 39.693 43.7177 38.3337 43.2024 38.1462C42.6873 37.9587 42.3127 37.8649 41.938 38.4274C41.5633 38.9898 40.4861 40.2555 40.1582 40.6304C39.8305 41.0053 39.5026 41.0524 38.9406 40.771C38.3785 40.4899 36.5676 39.8965 34.4209 37.9823C32.7501 36.4926 31.6221 34.6524 31.2942 34.0901C30.9665 33.5276 31.2593 33.2235 31.5407 32.9433C31.7935 32.6917 32.1027 32.2872 32.3837 31.959C32.6647 31.6309 32.7584 31.3965 32.9458 31.0217C33.1331 30.6466 33.0394 30.3186 32.8989 30.0372C32.7584 29.7561 31.6344 26.9905 31.166 25.8655C30.71 24.77 30.2466 24.9182 29.9015 24.901C29.5741 24.8847 29.1991 24.8812 28.8244 24.8812C28.4496 24.8812 27.8409 25.0219 27.3255 25.5844C26.8104 26.1468 25.3586 27.5061 25.3586 30.2716C25.3586 33.0371 27.3725 35.7088 27.6535 36.0839C27.9346 36.4589 31.6167 42.134 37.2547 44.5677C38.5955 45.1465 39.6425 45.4923 40.4587 45.7513C41.8051 46.1788 43.0302 46.1185 43.9988 45.9738C45.0785 45.8125 47.324 44.6145 47.7923 43.3022C48.2605 41.9897 48.2605 40.8648 48.1202 40.6304C47.9796 40.3961 47.6049 40.2555 47.043 39.9741Z" fill="#179AD3"/>
</svg>
